<!DOCTYPE svg PUBLIC "-//W3C//DTD SVG 1.1//EN" "http://www.w3.org/Graphics/SVG/1.1/DTD/svg11.dtd">
<!-- Uploaded to: SVG Repo, www.svgrepo.com, Transformed by: SVG Repo Mixer Tools -->
<svg fill="#000000" width="256px" height="256px" viewBox="-6.4 -6.4 76.80 76.80" xmlns="http://www.w3.org/2000/svg" stroke="#000000" stroke-width="1.8559999999999999" transform="matrix(1, 0, 0, 1, 0, 0)">
<g id="SVGRepo_bgCarrier" stroke-width="0" transform="translate(0,0), scale(1)">
<path transform="translate(-6.4, -6.4), scale(4.8)" fill="#eeaae2" d="M9.166.33a2.25 2.25 0 00-2.332 0l-5.25 3.182A2.25 2.25 0 00.5 5.436v5.128a2.25 2.25 0 001.084 1.924l5.25 3.182a2.25 2.25 0 002.332 0l5.25-3.182a2.25 2.25 0 001.084-1.924V5.436a2.25 2.25 0 00-1.084-1.924L9.166.33z" strokewidth="0"/>
</g>
<g id="SVGRepo_tracerCarrier" stroke-linecap="round" stroke-linejoin="round"/>
<g id="SVGRepo_iconCarrier"> <g data-name="Layer 28" id="Layer_28"> <path d="M32,3A29,29,0,1,0,61,32,29,29,0,0,0,32,3Zm0,56A27,27,0,1,1,59,32,27,27,0,0,1,32,59ZM43,37a1,1,0,0,1-1,1H22a1,1,0,0,1,0-2H42A1,1,0,0,1,43,37Zm5.71-19.29L44.41,22l4.3,4.29a1,1,0,0,1,0,1.42,1,1,0,0,1-1.42,0L43,23.41l-4.29,4.3a1,1,0,0,1-1.42,0,1,1,0,0,1,0-1.42L41.59,22l-4.3-4.29a1,1,0,0,1,1.42-1.42L43,20.59l4.29-4.3a1,1,0,0,1,1.42,1.42ZM23,23.41l-4.29,4.3a1,1,0,0,1-1.42,0,1,1,0,0,1,0-1.42L21.59,22l-4.3-4.29a1,1,0,0,1,1.42-1.42L23,20.59l4.29-4.3a1,1,0,0,1,1.42,1.42L24.41,22l4.3,4.29a1,1,0,0,1,0,1.42,1,1,0,0,1-1.42,0Z"/> </g> </g>
</svg>